PathFileType	4	(X/Y/Z)	pose_F01_0-75.trc
DataRate	CameraRate	NumFrames	NumMarkers	Units	OrigDataRate	OrigDataStartFrame	OrigNumFrames
30	30	8	21	m	30	42	75
Frame#	Time	CHip			RHip			RKnee			RAnkle			RBigToe			RSmallToe			RHeel			LHip			LKnee			LAnkle			LBigToe			LSmallToe			LHeel			Neck			Nose			RShoulder			RElbow			RWrist			LShoulder			LElbow			LWrist			
		X1	Y1	Z1	X2	Y2	Z2	X3	Y3	Z3	X4	Y4	Z4	X5	Y5	Z5	X6	Y6	Z6	X7	Y7	Z7	X8	Y8	Z8	X9	Y9	Z9	X10	Y10	Z10	X11	Y11	Z11	X12	Y12	Z12	X13	Y13	Z13	X14	Y14	Z14	X15	Y15	Z15	X16	Y16	Z16	X17	Y17	Z17	X18	Y18	Z18	X19	Y19	Z19	X20	Y20	Z20	X21	Y21	Z21	
42	1.4	-0.2598195960842698	1.8870804815544935	-0.5776068323895807	-0.27556093274003235	1.8800815514444293	-0.5037715963795506	-0.2622675559284582	1.7228154950493397	-0.5670677480508654	-0.24492788398404422	1.5867696038270696	-0.511121874455674	-0.24132036020226097	1.5543661269284683	-0.5731995617204124	-0.24822941104134155	1.5560596118292858	-0.5353006999734503	-0.2563308604338345	1.5733280833202339	-0.4743371392817578	-0.2424310971480923	1.8918918393780906	-0.6425559752737895	-0.2196713424191552	1.7356218522214886	-0.6848155643991075	-0.18389021349463705	1.6053319012955942	-0.6795862218544482	-0.17818787457677904	1.560450275353009	-0.7508975411523429	-0.16897443897679637	1.5747321848890228	-0.7609614204759522	-0.18577678778096962	1.5972968957533458	-0.6637447783188908	-0.26382505983360033	2.057737820009325	-0.5677249170948566	-0.2774388162442937	2.131656709503011	-0.6028497674111709	-0.2869754534644408	2.052461619661449	-0.4715775838847975	-0.2765514172372341	1.958762117377998	-0.40819498439694385	-0.2679976409864371	1.8760597977427254	-0.34562675292056366	-0.23861493598805653	2.065589913604433	-0.6584668400254327	-1.3091859255380676	1.8682235406070127	0.4274220207161384	-1.2116773835843493	1.8119439647801079	0.27502413409183246
43	1.4333333333333333	-0.25888466794128306	1.8833501703193773	-0.5651446067791507	-0.27566649573704544	1.875673072628489	-0.49443584668319146	-0.2622675559284582	1.7228154950493397	-0.5670677480508654	-0.24492788398404422	1.5867696038270696	-0.511121874455674	-0.24132036020226097	1.5543661269284683	-0.5731995617204124	-0.24822941104134155	1.5560596118292858	-0.5353006999734503	-0.2563308604338345	1.5733280833202339	-0.4743371392817578	-0.24247992633478704	1.8895116015403723	-0.6419924133853606	-0.22378018956244136	1.7296599998681723	-0.6799791597605079	-0.18663266685016042	1.6064880392831187	-0.6810255674558876	-0.1801935027477703	1.5616860932604635	-0.7491312055752235	-0.17102382489940035	1.5760626328442557	-0.7593432051015387	-0.1857367116565678	1.596868789115733	-0.6637398945749834	-0.26601350850313255	2.0575401267332296	-0.5486259590399928	-0.27214825024471867	2.133195773254629	-0.6128105392159148	-0.2865586239333291	2.048883233646191	-0.4458888291355917	-0.28171771013031754	1.9562532872317933	-0.42321748655382435	-0.28604553398539734	1.8805674488237767	-0.3999836639665605	-0.2417853262197398	2.066668306189629	-0.6507625261661557	-1.3091859255380676	1.8682235406070127	0.4274220207161384	-1.2116773835843493	1.8119439647801079	0.27502413409183246
44	1.4666666666666666	-0.25979349315967853	1.8843265724958729	-0.5598103822552478	-0.2756225732602022	1.8785064648305818	-0.49460052949933525	-0.2622675559284582	1.7228154950493397	-0.5670677480508654	-0.24492788398404422	1.5867696038270696	-0.511121874455674	-0.24132036020226097	1.5543661269284683	-0.5731995617204124	-0.24822941104134155	1.5560596118292858	-0.5353006999734503	-0.2563308604338345	1.5733280833202339	-0.4743371392817578	-0.24355900196184496	1.890807251145536	-0.6367405606396761	-0.2250868244058714	1.7288855562341234	-0.6747643622468324	-0.18722105560922997	1.6038405293005482	-0.6798798202583254	-0.17824745405057316	1.5604024610265903	-0.7508133781534377	-0.16994189576911203	1.5745674391691906	-0.7640810106902426	-0.1884919701427229	1.5943776940271928	-0.6603908763073194	-0.2671110008774916	2.056687297362168	-0.5349624754179478	-0.2690336231782323	2.134426780503567	-0.6119236307375394	-0.29128134301573044	2.0485613896588775	-0.4363350420156609	-0.2930637866402124	1.9560981990847077	-0.4250708816096922	-0.30409342698435765	1.885075099904828	-0.45434057501255726	-0.238699380462437	2.063990661829822	-0.6303239468560968	-1.3091859255380676	1.8682235406070127	0.4274220207161384	-1.2116773835843493	1.8119439647801079	0.27502413409183246
45	1.5	-0.25903764144269364	1.8865294433773407	-0.5571147893539674	-0.27570013867064536	1.8799758121833603	-0.49484277541468474	-0.2622675559284582	1.7228154950493397	-0.5670677480508654	-0.24492788398404422	1.5867696038270696	-0.511121874455674	-0.24132036020226097	1.5543661269284683	-0.5731995617204124	-0.24822941104134155	1.5560596118292858	-0.5353006999734503	-0.2563308604338345	1.5733280833202339	-0.4743371392817578	-0.24274775538021492	1.8922178185973655	-0.6337478647901533	-0.22777790829388156	1.7330415277672686	-0.6723586946749924	-0.1895892947525068	1.6037313772127537	-0.6776017554778522	-0.1787277743253153	1.5603250651227902	-0.742161286316046	-0.1705882207891787	1.5747833404147231	-0.7554381914918342	-0.1931747709302712	1.5952291959728229	-0.6556789964020363	-0.26819030746485034	2.0554863221243695	-0.5300321645402468	-0.2671006557870013	2.1354613697691094	-0.6144488409715921	-0.2912375283015157	2.0495901637783493	-0.4361290549862001	-0.2988813749488128	1.955478245192849	-0.41885859558821364	-0.3022362575185336	1.878766105689593	-0.44121188515486304	-0.24073018311142505	2.065428762721317	-0.6283875967025493	-1.3091859255380676	1.8682235406070127	0.4274220207161384	-1.2116773835843493	1.8119439647801079	0.27502413409183246
46	1.5333333333333334	-0.26118404621093605	1.8804989445526932	-0.5539946810467511	-0.2755872690006921	1.8752918928563178	-0.4769648888319604	-0.2622675559284582	1.7228154950493397	-0.5670677480508654	-0.24492788398404422	1.5867696038270696	-0.511121874455674	-0.24132036020226097	1.5543661269284683	-0.5731995617204124	-0.24822941104134155	1.5560596118292858	-0.5353006999734503	-0.2563308604338345	1.5733280833202339	-0.4743371392817578	-0.24102876339742677	1.8896938115427846	-0.6269437683906091	-0.22808184808459547	1.7278276342030288	-0.675459450362465	-0.19451658979413103	1.6046301632186684	-0.6768631140832609	-0.17963920695095237	1.560278269135627	-0.7452965814345943	-0.1736406859056642	1.574479283971746	-0.7563918552363524	-0.19488140148864136	1.594802400496077	-0.6541395479547077	-0.26508396538326484	2.0567633106928405	-0.5288043265291811	-0.26614811071240363	2.133995824425843	-0.6109807487917214	-0.2891770945461226	2.0507634994987733	-0.43821768943014955	-0.3022910086827016	1.9530813498913882	-0.4132867006237593	-0.31563552761519387	1.8707520810367573	-0.4587085424917711	-0.2379325191885444	2.0631360147758246	-0.618851500655624	-1.3091859255380676	1.8682235406070127	0.4274220207161384	-1.2116773835843493	1.8119439647801079	0.27502413409183246
47	1.5666666666666667	-0.26005338325378713	1.8814573676872086	-0.5510845591036815	-0.27652240788946314	1.8749773299479011	-0.4802157488121759	-0.2793426952533971	1.7168164835643027	-0.44164714907784874	-0.24492788398404422	1.5867696038270696	-0.511121874455674	-0.24132036020226097	1.5543661269284683	-0.5731995617204124	-0.24822941104134155	1.5560596118292858	-0.5353006999734503	-0.2563308604338345	1.5733280833202339	-0.4743371392817578	-0.24096820299922203	1.8904308265150156	-0.6185000211339958	-0.2263544347209898	1.7311010747489324	-0.6776478753083228	-0.19229223179036722	1.6048440890400655	-0.6791886116597335	-0.17874151884589065	1.5602559628869686	-0.7422918502066841	-0.17140561446092695	1.5746721632843133	-0.7585875307335231	-0.1934553373869404	1.5948078852354108	-0.6595102443253665	-0.26595902051715586	2.0568458588880025	-0.5318966936866705	-0.26612135710859275	2.1351709705059263	-0.6116303604510411	-0.28837256285017815	2.0523112064286844	-0.4440252589659686	-0.3004605001144557	1.955014648753491	-0.4158267082315527	-0.31278368109215776	1.8802558998255596	-0.46504871119312485	-0.23410872400602678	2.0615500074160322	-0.6150949288428735	-1.3091859255380676	1.8682235406070127	0.4274220207161384	-1.2116773835843493	1.8119439647801079	0.27502413409183246
48	1.6	-0.25785904964715756	1.8833463499010838	-0.5533138540216241	-0.2742005982548502	1.878168149745615	-0.48274348502275155	-0.27833150659988515	1.7165037593005252	-0.4427766288123205	-0.24492788398404422	1.5867696038270696	-0.511121874455674	-0.24132036020226097	1.5543661269284683	-0.5731995617204124	-0.24822941104134155	1.5560596118292858	-0.5353006999734503	-0.2563308604338345	1.5733280833202339	-0.4743371392817578	-0.23815016481101317	1.8892529262326234	-0.6173225675286996	-0.22574629448510425	1.7325574721870474	-0.6785419429639173	-0.19218001803367082	1.6036272262948386	-0.6873789466619797	-0.17738487127364766	1.560354594312439	-0.7476004481666452	-0.17203142117452633	1.573239296950386	-0.7620754001914918	-0.19129154177002056	1.5947745586027398	-0.6618013633505173	-0.26296203208332825	2.057079403354093	-0.5393344992521301	-0.2691227368467446	2.135285451100272	-0.6123276543302594	-0.2864978725523608	2.0541318500535435	-0.4545459714389827	-0.30096524042520195	1.960569390925138	-0.41935085904965314	-0.3097550502596433	1.8892826861274115	-0.4765782726825578	-0.23185942665058315	2.061214747646963	-0.6256781981871393	-1.3091859255380676	1.8682235406070127	0.4274220207161384	-1.2116773835843493	1.8119439647801079	0.27502413409183246
49	1.6333333333333333	-0.2579073532121987	1.8779672438057404	-0.5525371965842708	-0.2712674005223039	1.8751531563307386	-0.4813182135590658	-0.27732031794637313	1.7161910350367477	-0.44390610854679224	-0.24492788398404422	1.5867696038270696	-0.511121874455674	-0.24132036020226097	1.5543661269284683	-0.5731995617204124	-0.24822941104134155	1.5560596118292858	-0.5353006999734503	-0.2563308604338345	1.5733280833202339	-0.4743371392817578	-0.23711067379760456	1.8837256117163714	-0.6134452050800194	-0.22455921481161417	1.7316055202718337	-0.6836348478345041	-0.18916140905324935	1.6037721070110154	-0.6863117017301992	-0.17736584668997044	1.5603620026661995	-0.747522218642574	-0.17115297899287568	1.5733095096320993	-0.7589205490425945	-0.19157926476400855	1.5937456344344045	-0.6612417365745445	-0.25687854859786674	2.057669120536445	-0.5461196610557044	-0.2744413675863211	2.133370329415534	-0.6024212086730893	-0.28661990442458807	2.0561467653822594	-0.4711948747260993	-0.29566796626445907	1.9664159591136858	-0.4358386386822874	-0.3035387676363427	1.8950274461726455	-0.5013106303629091	-0.23139627655972667	2.062145763123233	-0.6340437549246568	-1.3091859255380676	1.8682235406070127	0.4274220207161384	-1.2116773835843493	1.8119439647801079	0.27502413409183246
